#N canvas 1045 51 329 287 10;
#X obj 78 122 int;
#X obj 109 122 - 1;
#X obj 196 120 bng 15 250 50 0 empty empty empty 17 7 0 10 -262144
-1 -1;
#X obj 78 51 tgl 15 0 empty empty empty 17 7 0 10 -262144 -1 -1 0 1
;
#X obj 78 71 t i b;
#X msg 196 88 8;
#X obj 78 148 moses 2;
#N canvas 370 43 899 729 play 1;
#X obj 380 29 inlet;
#X obj 455 80 int 0;
#X obj 381 57 t i b;
#X obj 455 115 moses 1;
#X obj 519 80 - 1;
#X obj 402 118 bng 15 250 50 0 empty empty empty 17 7 0 10 -262144
-1 -1;
#X obj 372 139 int;
#N canvas 268 66 381 479 nextNoteLength 1;
#X obj 22 23 inlet;
#N canvas 958 112 429 359 logBase2 0;
#X obj 37 22 inlet;
#X obj 37 43 int;
#X obj 37 87 bng 15 250 50 0 empty empty empty 17 7 0 10 -262144 -1
-1;
#X obj 37 65 moses 2;
#X obj 37 107 float 0;
#X obj 103 137 moses 2;
#X obj 249 146 bng 15 250 50 0 empty empty empty 17 7 0 10 -262144
-1 -1;
#X obj 202 193 int;
#X obj 248 192 + 1;
#X obj 202 167 bng 15 250 50 0 empty empty empty 17 7 0 10 -262144
-1 -1;
#X obj 142 162 / 2;
#X obj 102 222 int;
#X obj 76 253 outlet;
#X obj 103 163 bng 15 250 50 0 empty empty empty 17 7 0 10 -262144
-1 -1;
#X msg 249 166 1;
#X obj 103 107 trigger int bang;
#X text 136 19 This is just a small routine to calculate the log (base
2) of a value. If it isn't a power of two... hahaha good luck with
that XD;
#X connect 0 0 1 0;
#X connect 1 0 3 0;
#X connect 2 0 4 0;
#X connect 3 0 2 0;
#X connect 3 1 15 0;
#X connect 4 0 12 0;
#X connect 5 0 13 0;
#X connect 5 1 9 0;
#X connect 5 1 10 0;
#X connect 6 0 14 0;
#X connect 7 0 8 0;
#X connect 7 0 11 1;
#X connect 8 0 7 1;
#X connect 9 0 7 0;
#X connect 10 0 5 0;
#X connect 11 0 12 0;
#X connect 13 0 11 0;
#X connect 14 0 7 1;
#X connect 15 0 5 0;
#X connect 15 1 6 0;
#X restore 22 88 pd logBase2;
#X obj 22 64 expr if ($f1 == 2 \, 2 \, $f1 - 1);
#X obj 22 112 + 1;
#X obj 22 178 random;
#X obj 22 136 trigger bang int;
#X obj 22 420 outlet;
#X obj 22 398 expr pow(2 \, $f1);
#X obj 22 201 moses 2;
#X obj 74 231 t b i;
#X obj 74 326 int;
#X obj 74 256 random 100;
#X obj 74 305 bng 15 250 50 0 empty empty empty 17 7 0 10 -262144 -1
-1;
#X obj 119 329 int;
#X obj 119 309 bng 15 250 50 0 empty empty empty 17 7 0 10 -262144
-1 -1;
#X obj 119 351 / 2;
#X obj 119 372 int;
#X obj 22 158 bng 15 250 50 0 empty empty empty 17 7 0 10 -262144 -1
-1;
#X obj 74 282 moses 50;
#X connect 0 0 2 0;
#X connect 1 0 3 0;
#X connect 2 0 1 0;
#X connect 3 0 5 0;
#X connect 4 0 8 0;
#X connect 5 0 17 0;
#X connect 5 1 4 1;
#X connect 7 0 6 0;
#X connect 8 0 7 0;
#X connect 8 1 9 0;
#X connect 9 0 11 0;
#X connect 9 1 10 1;
#X connect 9 1 13 1;
#X connect 10 0 7 0;
#X connect 11 0 18 0;
#X connect 12 0 10 0;
#X connect 13 0 15 0;
#X connect 14 0 13 0;
#X connect 15 0 16 0;
#X connect 16 0 7 0;
#X connect 17 0 4 0;
#X connect 18 0 12 0;
#X connect 18 1 14 0;
#X restore 541 183 pd nextNoteLength;
#N canvas 122 55 685 644 makechord 1;
#X obj 172 29 inlet;
#X obj 163 76 int;
#X obj 97 28 inlet;
#X obj 97 103 moses 1;
#X obj 136 127 moses 2;
#X obj 175 152 moses 3;
#X obj 214 175 moses 4;
#X obj 253 199 moses 5;
#X obj 292 224 moses 6;
#X msg 58 311 0;
#X obj 205 677 outlet;
#X obj 568 366 inlet;
#X obj 763 495 inlet;
#X obj 217 628 makenote;
#X obj 310 679 outlet;
#X obj 188 393 +;
#X obj 224 436 +;
#X obj 268 477 +;
#X obj 97 55 t i b;
#X msg 322 304 2;
#X obj 55 263 bng 15 250 50 0 empty empty empty 17 7 0 10 -262144 -1
-1;
#X obj 316 275 bng 15 250 50 0 empty empty empty 17 7 0 10 -262144
-1 -1;
#X obj 422 292 bng 15 250 50 0 empty empty empty 17 7 0 10 -262144
-1 -1;
#X msg 435 322 7;
#X obj 117 259 bng 15 250 50 0 empty empty empty 17 7 0 10 -262144
-1 -1;
#X msg 117 287 5;
#X obj 38 360 t i b b;
#X msg 55 391 4;
#X msg 95 395 3;
#X obj 305 338 t i b b;
#X msg 322 384 3;
#X msg 367 389 4;
#X obj 175 193 bng 15 250 50 0 empty empty empty 17 7 0 10 -262144
-1 -1;
#X msg 177 229 11;
#X msg 183 260 3;
#X msg 201 290 3;
#X obj 218 205 bng 15 250 50 0 empty empty empty 17 7 0 10 -262144
-1 -1;
#X msg 217 233 4;
#X obj 256 261 bng 15 250 50 0 empty empty empty 17 7 0 10 -262144
-1 -1;
#X msg 260 292 9;
#X obj 111 493 t b i;
#X obj 133 565 int;
#X obj 49 524 random 100;
#X obj 70 593 bng 15 250 50 0 empty empty empty 17 7 0 10 -262144 -1
-1;
#X obj 35 557 moses 40;
#X obj 581 477 int;
#X obj 491 476 int;
#X obj 300 566 int;
#X obj 49 183 t b b;
#X obj 375 523 *;
#X msg 333 486 0.8;
#X obj 74 424 t i b b;
#X obj 334 425 t i b b;
#X msg 386 481 0.7;
#X text 43 242 I;
#X text 104 239 IV;
#X text 148 177 vii°;
#X text 198 198 iii;
#X text 262 239 vi;
#X text 323 255 ii;
#X text 422 269 V;
#X connect 0 0 1 1;
#X connect 1 0 3 0;
#X connect 2 0 18 0;
#X connect 3 0 48 0;
#X connect 3 1 4 0;
#X connect 4 0 24 0;
#X connect 4 1 5 0;
#X connect 5 0 32 0;
#X connect 5 1 6 0;
#X connect 6 0 36 0;
#X connect 6 1 7 0;
#X connect 7 0 38 0;
#X connect 7 1 8 0;
#X connect 8 0 21 0;
#X connect 8 1 22 0;
#X connect 9 0 26 0;
#X connect 11 0 45 1;
#X connect 11 0 46 1;
#X connect 12 0 13 2;
#X connect 13 0 10 0;
#X connect 13 1 14 0;
#X connect 15 0 13 0;
#X connect 15 0 16 0;
#X connect 16 0 17 0;
#X connect 16 0 40 0;
#X connect 17 0 13 0;
#X connect 18 0 15 0;
#X connect 18 1 1 0;
#X connect 19 0 29 0;
#X connect 20 0 9 0;
#X connect 21 0 19 0;
#X connect 22 0 23 0;
#X connect 23 0 26 0;
#X connect 24 0 25 0;
#X connect 25 0 26 0;
#X connect 26 1 27 0;
#X connect 26 2 28 0;
#X connect 27 0 16 1;
#X connect 28 0 51 0;
#X connect 29 0 15 1;
#X connect 29 1 30 0;
#X connect 29 2 31 0;
#X connect 30 0 16 1;
#X connect 31 0 52 0;
#X connect 32 0 33 0;
#X connect 32 0 34 0;
#X connect 32 0 35 0;
#X connect 33 0 15 1;
#X connect 34 0 16 1;
#X connect 35 0 52 0;
#X connect 36 0 37 0;
#X connect 37 0 29 0;
#X connect 38 0 39 0;
#X connect 39 0 29 0;
#X connect 40 0 42 0;
#X connect 40 1 41 1;
#X connect 41 0 13 0;
#X connect 42 0 44 0;
#X connect 43 0 41 0;
#X connect 44 1 43 0;
#X connect 45 0 13 1;
#X connect 46 0 49 0;
#X connect 47 0 13 1;
#X connect 48 0 45 0;
#X connect 48 1 20 0;
#X connect 49 0 47 0;
#X connect 50 0 49 1;
#X connect 51 0 17 1;
#X connect 51 1 46 0;
#X connect 51 2 50 0;
#X connect 52 0 17 1;
#X connect 52 1 46 0;
#X connect 52 2 53 0;
#X connect 53 0 49 1;
#X restore 464 567 pd makechord;
#N canvas 731 71 774 678 nextchord 0;
#X obj 457 15 inlet;
#X obj 457 39 int;
#X obj 131 356 moses;
#X obj 21 157 t i b b b;
#X obj 137 318 random 100;
#X obj 195 394 moses;
#X obj 258 440 moses;
#X msg 122 400 1;
#X msg 195 445 2;
#X msg 244 484 3;
#X msg 301 485 4;
#X msg 106 218 100;
#X obj 234 529 +;
#X obj 215 645 outlet;
#X obj 168 150 t i b b b b;
#X msg 254 253 100;
#X obj 319 178 t i b b b b;
#X msg 458 318 100;
#X obj 417 208 t i b b b b;
#X obj 515 238 t i b b b;
#X msg 532 283 25;
#X msg 551 317 100;
#X msg 501 422 80;
#X msg 524 457 90;
#X msg 575 462 100;
#X obj 517 361 t i b b b b;
#X obj 614 407 t i b b b;
#X msg 644 446 80;
#X msg 644 482 100;
#X obj 457 65 moses 1;
#X obj 496 89 moses 2;
#X obj 535 114 moses 3;
#X obj 574 137 moses 4;
#X obj 613 161 moses 5;
#X obj 652 186 moses 6;
#X obj 233 561 moses 7;
#X obj 271 596 mod 7;
#X msg 59 209 90;
#X msg 170 212 10;
#X msg 205 250 55;
#X text 27 120 I;
#X text 189 125 IV;
#X text 342 145 vii°;
#X text 438 181 iii;
#X text 545 340 ii;
#X text 632 384 V;
#X text 530 208 vi;
#X msg 333 225 15;
#X msg 341 262 30;
#X msg 346 293 100;
#X msg 430 245 10;
#X msg 440 284 55;
#X connect 0 0 1 0;
#X connect 1 0 29 0;
#X connect 2 0 7 0;
#X connect 2 1 5 0;
#X connect 3 0 12 0;
#X connect 3 1 4 0;
#X connect 3 2 37 0;
#X connect 3 3 11 0;
#X connect 4 0 2 0;
#X connect 5 0 8 0;
#X connect 5 1 6 0;
#X connect 6 0 9 0;
#X connect 6 1 10 0;
#X connect 7 0 12 1;
#X connect 8 0 12 1;
#X connect 9 0 12 1;
#X connect 10 0 12 1;
#X connect 11 0 5 1;
#X connect 12 0 35 0;
#X connect 14 0 12 0;
#X connect 14 1 4 0;
#X connect 14 2 38 0;
#X connect 14 3 39 0;
#X connect 14 4 15 0;
#X connect 15 0 6 1;
#X connect 16 0 12 0;
#X connect 16 1 4 0;
#X connect 16 2 47 0;
#X connect 16 3 48 0;
#X connect 16 4 49 0;
#X connect 17 0 6 1;
#X connect 18 0 12 0;
#X connect 18 1 4 0;
#X connect 18 2 50 0;
#X connect 18 3 51 0;
#X connect 18 4 17 0;
#X connect 19 0 12 0;
#X connect 19 1 4 0;
#X connect 19 2 20 0;
#X connect 19 3 21 0;
#X connect 20 0 2 1;
#X connect 21 0 5 1;
#X connect 22 0 2 1;
#X connect 23 0 5 1;
#X connect 24 0 6 1;
#X connect 25 0 12 0;
#X connect 25 1 4 0;
#X connect 25 2 22 0;
#X connect 25 3 23 0;
#X connect 25 4 24 0;
#X connect 26 0 12 0;
#X connect 26 1 4 0;
#X connect 26 2 27 0;
#X connect 26 3 28 0;
#X connect 27 0 2 1;
#X connect 28 0 5 1;
#X connect 29 0 3 0;
#X connect 29 1 30 0;
#X connect 30 0 14 0;
#X connect 30 1 31 0;
#X connect 31 0 16 0;
#X connect 31 1 32 0;
#X connect 32 0 18 0;
#X connect 32 1 33 0;
#X connect 33 0 19 0;
#X connect 33 1 34 0;
#X connect 34 0 25 0;
#X connect 34 1 26 0;
#X connect 35 0 13 0;
#X connect 35 1 36 0;
#X connect 36 0 13 0;
#X connect 37 0 2 1;
#X connect 38 0 2 1;
#X connect 39 0 5 1;
#X connect 47 0 2 1;
#X connect 48 0 5 1;
#X connect 49 0 6 1;
#X connect 50 0 2 1;
#X connect 51 0 5 1;
#X restore 464 232 pd nextchord;
#X obj 465 197 int 0;
#X obj 464 156 t b i;
#X obj 547 457 t b i;
#X obj 480 602 noteout;
#X msg 517 526 90;
#X obj 556 510 * 250;
#X obj 185 132 60;
#X obj 130 235 == 2;
#X obj 172 235 == 4;
#X obj 211 235 == 6;
#X obj 172 202 int;
#X obj 204 365 int;
#X obj 167 268 moses 1;
#X obj 178 290 bng 15 250 50 0 empty empty empty 17 7 0 10 -262144
-1 -1;
#X obj 464 255 t b i i;
#X obj 183 165 t b i;
#X obj 290 312 int;
#X obj 260 291 bng 15 250 50 0 empty empty empty 17 7 0 10 -262144
-1 -1;
#X obj 204 420 moses 60;
#X obj 250 451 moses 72;
#X obj 211 506 random 100;
#X obj 213 530 moses 50;
#X obj 212 558 bng 15 250 50 0 empty empty empty 17 7 0 10 -262144
-1 -1;
#X obj 260 554 bng 15 250 50 0 empty empty empty 17 7 0 10 -262144
-1 -1;
#X obj 228 477 bng 15 250 50 0 empty empty empty 17 7 0 10 -262144
-1 -1;
#X obj 151 451 bng 15 250 50 0 empty empty empty 17 7 0 10 -262144
-1 -1;
#X obj 310 484 bng 15 250 50 0 empty empty empty 17 7 0 10 -262144
-1 -1;
#X obj 205 390 t i i;
#X obj 89 316 random 100;
#X obj 89 343 moses 50;
#X obj 105 375 bng 15 250 50 0 empty empty empty 17 7 0 10 -262144
-1 -1;
#X obj 143 500 int;
#X obj 353 515 int;
#X obj 354 545 - 12;
#X obj 92 580 + 12;
#X obj 109 541 t i i;
#X connect 0 0 2 0;
#X connect 1 0 3 0;
#X connect 2 0 6 1;
#X connect 2 1 1 0;
#X connect 3 0 5 0;
#X connect 3 1 4 0;
#X connect 4 0 1 1;
#X connect 5 0 6 0;
#X connect 6 0 11 0;
#X connect 7 0 4 0;
#X connect 7 0 12 0;
#X connect 8 0 13 0;
#X connect 8 1 13 1;
#X connect 9 0 10 1;
#X connect 9 0 24 0;
#X connect 10 0 9 0;
#X connect 11 0 10 0;
#X connect 11 1 7 0;
#X connect 12 0 14 0;
#X connect 12 1 15 0;
#X connect 14 0 8 2;
#X connect 15 0 8 3;
#X connect 16 0 25 0;
#X connect 16 0 26 1;
#X connect 17 0 22 0;
#X connect 18 0 22 0;
#X connect 19 0 22 0;
#X connect 20 0 17 0;
#X connect 20 0 18 0;
#X connect 20 0 19 0;
#X connect 21 0 37 0;
#X connect 22 0 27 0;
#X connect 22 1 23 0;
#X connect 23 0 38 0;
#X connect 24 0 16 0;
#X connect 24 1 8 1;
#X connect 24 1 20 1;
#X connect 25 0 20 0;
#X connect 25 1 21 1;
#X connect 26 0 8 0;
#X connect 27 0 26 0;
#X connect 28 0 35 0;
#X connect 28 1 29 0;
#X connect 29 0 34 0;
#X connect 29 1 36 0;
#X connect 30 0 31 0;
#X connect 31 0 32 0;
#X connect 31 1 33 0;
#X connect 32 0 41 0;
#X connect 33 0 42 0;
#X connect 34 0 30 0;
#X connect 35 0 41 0;
#X connect 36 0 42 0;
#X connect 37 0 28 0;
#X connect 37 1 41 1;
#X connect 37 1 42 1;
#X connect 38 0 39 0;
#X connect 39 0 40 0;
#X connect 39 1 27 0;
#X connect 40 0 21 0;
#X connect 41 0 45 0;
#X connect 42 0 43 0;
#X connect 43 0 8 0;
#X connect 43 0 16 1;
#X connect 44 0 16 1;
#X connect 45 0 44 0;
#X connect 45 1 8 0;
#X restore 32 178 pd play;
#X obj 32 149 t i i;
#X obj 78 96 metro 250;
#X connect 0 0 1 0;
#X connect 0 0 6 0;
#X connect 0 0 8 0;
#X connect 1 0 0 1;
#X connect 2 0 5 0;
#X connect 3 0 4 0;
#X connect 4 0 9 0;
#X connect 4 1 5 0;
#X connect 5 0 0 1;
#X connect 6 0 2 0;
#X connect 8 0 7 0;
#X connect 9 0 0 0;
