#N canvas 282 64 960 644 10;
#X obj 670 408 makenote;
#X obj 629 470 noteout;
#X obj 511 12 tgl 60 0 empty empty Start 17 7 0 14 -4034 -262144 -33289
0 1;
#X msg 611 144 60;
#X msg 769 453 1;
#X obj 669 547 pgmout;
#X obj 263 506 hsl 128 15 0 127 0 0 empty empty empty -2 -8 0 10 -262144
-1 -1 0 1;
#X obj 261 530 int;
#X floatatom 262 559 5 0 0 0 - - -;
#X msg 611 187 80;
#X text 311 559 Instrument Number;
#X text 258 486 Slide to select instrument;
#X text 650 187 Note velocity;
#X text 666 219 Note length (ms);
#X text 639 145 Initial note (60=C4/Middle C);
#X text 801 452 MIDI output channel;
#X text 724 547 (Used to set the instrument);
#N canvas 731 45 761 742 getNote 1;
#X obj 48 21 inlet;
#X obj 506 42 inlet;
#X text 506 18 Initial note;
#X obj 48 56 random 100;
#X obj 48 82 moses 50;
#X obj 48 108 bng 15 250 50 0 empty empty empty 17 7 0 10 -262144 -1
-1;
#X obj 92 126 bng 15 250 50 0 empty empty empty 17 7 0 10 -262144 -1
-1;
#X obj 48 132 + 1;
#X obj 92 150 - 1;
#X floatatom 140 194 5 0 0 0 - - -;
#X obj 69 194 +;
#X obj 389 711 outlet;
#X obj 211 316 moses 2;
#X obj 250 345 moses 3;
#X obj 289 374 moses 4;
#X obj 328 404 moses 5;
#X obj 367 432 moses 6;
#X obj 172 287 moses 1;
#X msg 169 344 0;
#X msg 211 384 2;
#X msg 249 423 4;
#X msg 285 457 5;
#X msg 325 494 7;
#X msg 365 524 9;
#X msg 409 560 11;
#X obj 122 247 mod 7;
#X msg 506 537 60;
#X obj 400 662 +;
#X connect 0 0 3 0;
#X connect 0 0 26 0;
#X connect 1 0 26 0;
#X connect 3 0 4 0;
#X connect 4 0 5 0;
#X connect 4 1 6 0;
#X connect 5 0 7 0;
#X connect 6 0 8 0;
#X connect 7 0 10 0;
#X connect 8 0 10 0;
#X connect 9 0 10 1;
#X connect 10 0 9 0;
#X connect 10 0 25 0;
#X connect 12 0 19 0;
#X connect 12 1 13 0;
#X connect 13 0 20 0;
#X connect 13 1 14 0;
#X connect 14 0 21 0;
#X connect 14 1 15 0;
#X connect 15 0 22 0;
#X connect 15 1 16 0;
#X connect 16 0 23 0;
#X connect 16 1 24 0;
#X connect 17 0 18 0;
#X connect 17 1 12 0;
#X connect 18 0 27 0;
#X connect 19 0 27 0;
#X connect 20 0 27 0;
#X connect 21 0 27 0;
#X connect 22 0 27 0;
#X connect 23 0 27 0;
#X connect 24 0 27 0;
#X connect 25 0 17 0;
#X connect 26 0 27 1;
#X connect 27 0 11 0;
#X restore 495 176 pd getNote;
#X obj 465 403 makenote;
#X obj 287 191 float;
#X obj 329 191 + 1;
#X msg 287 158 0;
#X obj 287 239 moses 1;
#X obj 287 267 bng 15 250 50 0 empty empty empty 17 7 0 10 -262144
-1 -1;
#X obj 450 287 float;
#X obj 450 310 - 24;
#X obj 287 214 mod 4;
#X obj 531 376 * 4;
#X msg 634 220 250;
#X obj 511 119 metro 250;
#X text 263 311 Transpose the note down 24 semi-tones AKA 2 octaves
;
#X text 123 174 This block is basically a simple counter with if (count
% 4 == 0) do something...;
#X connect 0 0 1 0;
#X connect 0 0 4 0;
#X connect 0 1 1 1;
#X connect 2 0 3 0;
#X connect 2 0 21 0;
#X connect 2 0 29 0;
#X connect 3 0 17 1;
#X connect 3 0 9 0;
#X connect 4 0 5 1;
#X connect 4 0 1 2;
#X connect 6 0 7 0;
#X connect 7 0 8 0;
#X connect 7 0 5 0;
#X connect 9 0 0 1;
#X connect 9 0 28 0;
#X connect 9 0 18 1;
#X connect 17 0 0 0;
#X connect 17 0 24 1;
#X connect 18 0 1 0;
#X connect 18 1 1 1;
#X connect 19 0 20 0;
#X connect 19 0 26 0;
#X connect 20 0 19 1;
#X connect 21 0 19 1;
#X connect 22 0 23 0;
#X connect 23 0 24 0;
#X connect 24 0 25 0;
#X connect 25 0 18 0;
#X connect 26 0 22 0;
#X connect 27 0 18 2;
#X connect 28 0 0 2;
#X connect 28 0 27 0;
#X connect 29 0 17 0;
#X connect 29 0 19 0;
