#N canvas 718 54 669 460 10;
#X obj 62 202 int;
#X obj 94 203 - 1;
#X obj 60 146 bng 15 250 50 0 empty empty empty 17 7 0 10 -262144 -1
-1;
#X obj 78 51 tgl 15 0 empty empty empty 17 7 0 10 -262144 -1 -1 0 1
;
#X obj 102 122 metro 500;
#X obj 79 85 t i b;
#X msg 77 176 8;
#X obj 39 295 moses 2;
#N canvas 839 418 450 300 play 1;
#X obj 47 23 inlet;
#N canvas 392 84 840 615 nextNote 1;
#X obj 264 43 inlet;
#N canvas 850 293 429 359 logBase2 0;
#X obj 37 22 inlet;
#X obj 37 43 int;
#X obj 37 87 bng 15 250 50 0 empty empty empty 17 7 0 10 -262144 -1
-1;
#X obj 37 65 moses 2;
#X obj 37 107 float 0;
#X obj 103 137 moses 2;
#X obj 249 146 bng 15 250 50 0 empty empty empty 17 7 0 10 -262144
-1 -1;
#X obj 202 193 int;
#X obj 248 192 + 1;
#X obj 202 167 bng 15 250 50 0 empty empty empty 17 7 0 10 -262144
-1 -1;
#X obj 142 162 / 2;
#X obj 102 222 int;
#X obj 76 253 outlet;
#X obj 103 163 bng 15 250 50 0 empty empty empty 17 7 0 10 -262144
-1 -1;
#X msg 249 166 1;
#X obj 103 107 trigger int bang;
#X text 136 19 This is just a small routine to calculate the log (base
2) of a value. If it isn't a power of two... hahaha good luck with
that XD;
#X connect 0 0 1 0;
#X connect 1 0 3 0;
#X connect 2 0 4 0;
#X connect 3 0 2 0;
#X connect 3 1 15 0;
#X connect 4 0 12 0;
#X connect 5 0 13 0;
#X connect 5 1 9 0;
#X connect 5 1 10 0;
#X connect 6 0 14 0;
#X connect 7 0 8 0;
#X connect 7 0 11 1;
#X connect 8 0 7 1;
#X connect 9 0 7 0;
#X connect 10 0 5 0;
#X connect 11 0 12 0;
#X connect 13 0 11 0;
#X connect 14 0 7 1;
#X connect 15 0 5 0;
#X connect 15 1 6 0;
#X restore 264 120 pd logBase2;
#X obj 264 96 expr if ($f1 == 2 \, 2 \, $f1 - 1);
#X obj 264 144 + 1;
#X obj 264 191 random;
#X obj 264 168 trigger bang int;
#X obj 264 235 outlet;
#X obj 264 213 expr pow(2 \, $f1);
#X obj 95 98 int 60;
#X obj 393 28 inlet;
#X obj 53 66 t b b;
#X obj 42 98 int 0;
#X obj 80 142 int;
#X obj 41 179 moses 21;
#X obj 41 214 bng 15 250 50 0 empty empty empty 17 7 0 10 -262144 -1
-1;
#X obj 88 214 int;
#X obj 23 296 random 99;
#X obj 63 243 t i b;
#X obj 25 338 moses 33;
#X obj 70 370 moses 66;
#X obj 22 374 bng 15 250 50 0 empty empty empty 17 7 0 10 -262144 -1
-1;
#X obj 71 407 bng 15 250 50 0 empty empty empty 17 7 0 10 -262144 -1
-1;
#X obj 111 404 bng 15 250 50 0 empty empty empty 17 7 0 10 -262144
-1 -1;
#X msg 116 439 7;
#X msg 68 438 5;
#X msg 15 437 4;
#X obj 173 487 +;
#X obj 173 515 outlet;
#X obj 264 71 t b i;
#X connect 0 0 28 0;
#X connect 1 0 3 0;
#X connect 2 0 1 0;
#X connect 3 0 5 0;
#X connect 4 0 7 0;
#X connect 5 0 4 0;
#X connect 5 1 4 1;
#X connect 7 0 6 0;
#X connect 8 0 12 1;
#X connect 9 0 8 1;
#X connect 10 0 11 0;
#X connect 10 1 8 0;
#X connect 11 0 13 0;
#X connect 12 0 11 1;
#X connect 12 0 15 0;
#X connect 13 0 14 0;
#X connect 13 1 15 0;
#X connect 14 0 12 0;
#X connect 15 0 17 0;
#X connect 16 0 18 0;
#X connect 17 0 26 0;
#X connect 17 1 16 0;
#X connect 18 0 20 0;
#X connect 18 1 19 0;
#X connect 19 0 21 0;
#X connect 19 1 22 0;
#X connect 20 0 25 0;
#X connect 21 0 24 0;
#X connect 22 0 23 0;
#X connect 23 0 26 1;
#X connect 24 0 26 1;
#X connect 25 0 26 1;
#X connect 26 0 27 0;
#X connect 28 0 10 0;
#X connect 28 1 2 0;
#X restore 122 158 pd nextNote;
#X obj 122 74 int 0;
#X obj 48 51 t i b;
#X obj 122 109 moses 1;
#X obj 186 74 - 1;
#X obj 69 112 bng 15 250 50 0 empty empty empty 17 7 0 10 -262144 -1
-1;
#X obj 39 133 int;
#X connect 0 0 3 0;
#X connect 1 1 5 0;
#X connect 2 0 4 0;
#X connect 3 0 7 1;
#X connect 3 1 2 0;
#X connect 4 0 6 0;
#X connect 4 1 5 0;
#X connect 5 0 2 1;
#X connect 6 0 7 0;
#X connect 7 0 1 0;
#X restore 208 291 pd play;
#X obj 116 235 t i i;
#X obj 128 294 print count;
#X connect 0 0 1 0;
#X connect 0 0 7 0;
#X connect 0 0 9 0;
#X connect 1 0 0 1;
#X connect 2 0 6 0;
#X connect 3 0 5 0;
#X connect 4 0 0 0;
#X connect 5 0 4 0;
#X connect 5 1 6 0;
#X connect 6 0 0 1;
#X connect 7 0 2 0;
#X connect 9 0 8 0;
#X connect 9 1 10 0;
